<svg xmlns="http://www.w3.org/2000/svg" viewBox="0 0 400 500" width="400" height="500" role="img" aria-label="Unlined blazer — Datum">
  <title>Unlined blazer — Datum</title>
  <defs>
    <linearGradient id="bg461647155" x1="0" y1="0" x2="1" y2="1" gradientTransform="rotate(75 .5 .5)">
      <stop offset="0" stop-color="#f4f4f5"/>
      <stop offset="1" stop-color="#e2e2e6"/>
    </linearGradient>
    <radialGradient id="gl461647155" cx="81.25%" cy="36.8%" r="203">
      <stop offset="0" stop-color="#2b2b30" stop-opacity="0.22"/>
      <stop offset="1" stop-color="#2b2b30" stop-opacity="0"/>
    </radialGradient>
  </defs>
  <rect width="400" height="500" fill="url(#bg461647155)"/>
  <rect width="400" height="500" fill="url(#gl461647155)"/>
  <circle cx="325" cy="184" r="91.35000000000001" fill="#2b2b30" fill-opacity="0.1"/>

  <g transform="">
    <path d="M150,88 L200,124 L250,88 L320,146 L306,214 L276,196 L276,446 L124,446 L124,196 L94,214 L80,146 Z" fill="#17171a" fill-opacity="0.92"/>
    <path d="M200,124 L152,90 L176,208 L200,170 Z" fill="#17171a" fill-opacity="0.92"/>
    <path d="M200,124 L248,90 L224,208 L200,170 Z" fill="#17171a" fill-opacity="0.92"/>
    <path d="M132,300 L172,300 L172,336 L132,336 Z" fill="none" stroke="#2b2b30" stroke-opacity="0.9" stroke-width="4" stroke-linecap="round"/>
    <path d="M228,300 L268,300 L268,336 L228,336 Z" fill="none" stroke="#2b2b30" stroke-opacity="0.9" stroke-width="4" stroke-linecap="round"/>
  </g>
</svg>
