<svg xmlns="http://www.w3.org/2000/svg" viewBox="0 0 400 500" width="400" height="500" role="img" aria-label="Knitted shell vest — Soft Machine">
  <title>Knitted shell vest — Soft Machine</title>
  <defs>
    <linearGradient id="bg4143054119" x1="0" y1="0" x2="1" y2="1" gradientTransform="rotate(239 .5 .5)">
      <stop offset="0" stop-color="#0d1117"/>
      <stop offset="1" stop-color="#151b23"/>
    </linearGradient>
    <radialGradient id="gl4143054119" cx="52.25%" cy="-43.6%" r="13">
      <stop offset="0" stop-color="#5b9cf8" stop-opacity="0.3"/>
      <stop offset="1" stop-color="#5b9cf8" stop-opacity="0"/>
    </radialGradient>
  </defs>
  <rect width="400" height="500" fill="url(#bg4143054119)"/>
  <rect width="400" height="500" fill="url(#gl4143054119)"/>
  <circle cx="209" cy="-218" r="5.8500000000000005" fill="#5b9cf8" fill-opacity="0.1"/>

  <g transform="">
    <path d="M144,104 L200,134 L256,104 L336,166 L318,250 L284,230 L284,440 L116,440 L116,230 L82,250 L64,166 Z" fill="#e7edf4" fill-opacity="0.92"/>
    <path d="M116,412 L284,412" fill="none" stroke="#5b9cf8" stroke-opacity="0.9" stroke-width="4" stroke-linecap="round"/>
    <path d="M174,116 Q200,150 226,116" fill="none" stroke="#5b9cf8" stroke-opacity="0.9" stroke-width="4" stroke-linecap="round"/>
    <path d="M150,240 L150,404" fill="none" stroke="#5b9cf8" stroke-opacity="0.9" stroke-width="4" stroke-linecap="round"/>
    <path d="M200,236 L200,404" fill="none" stroke="#5b9cf8" stroke-opacity="0.9" stroke-width="4" stroke-linecap="round"/>
    <path d="M250,240 L250,404" fill="none" stroke="#5b9cf8" stroke-opacity="0.9" stroke-width="4" stroke-linecap="round"/>
  </g>
</svg>
